<?xml version="1.0" standalone="no"?>
<!DOCTYPE svg PUBLIC "-//W3C//DTD SVG 1.1//EN" "http://www.w3.org/Graphics/SVG/1.1/DTD/svg11.dtd" >
<svg xmlns="http://www.w3.org/2000/svg">
<metadata>
Created by FontPrep 20130207 at Mon Oct 14 13:37:01 2013
 By Jason Cypret
Copyright 2013 Adobe Systems Incorporated. All rights reserved.
</metadata>
<defs>
<font id="9a63e4a7c2fdfba41eb3ac13e2b87a86" horiz-adv-x='1024' >
  <font-face 
    font-family="expressionui"
    font-weight="400"
    font-stretch="normal"
    units-per-em="2048"
    panose-1="2 0 0 0 0 0 0 0 0 0"
    ascent="1536"
    descent="-512"
    x-height="1399"
    cap-height="1528"
    bbox="-48 -344 2715.88 1649"
    underline-thickness="102"
    underline-position="-102"
    unicode-range="U+0020-007D"
  />
<missing-glyph horiz-adv-x="1024" 
 />
    <glyph glyph-name=".notdef" horiz-adv-x="1024" 
 />
    <glyph glyph-name=".null" horiz-adv-x="0" 
 />
    <glyph glyph-name="nonmarkingreturn" horiz-adv-x="681" 
 />
    <glyph glyph-name="space" unicode=" " horiz-adv-x="1024" 
 />
    <glyph glyph-name="exclam" unicode="!" 
d="M1675 72q0 -68 -56 -113t-155 -45h-1216q-100 0 -157 45q-56 45 -56 113t41 139l610 1046q72 123 172 123t170 -123l608 -1046q39 -71 39 -139zM862 98q43 0 75 31t32 75t-32 75t-75 31t-74 -30q-30 -30 -30 -75t30 -76t74 -31zM936 375l49 604h-246l49 -604h148z" />
    <glyph glyph-name="quotedbl" unicode="&#x22;" horiz-adv-x="1705" 
d="M842 1417q328 0 560 -231t232 -559t-231 -560q-231 -233 -560 -233t-560 232t-232 561q-1 328 231 559t560 231zM946 1044q0 46 -32 78q-32 33 -78 33q-47 0 -81 -33t-34 -79q0 -47 34 -79q33 -32 79 -32t79 33t33 79zM1049 86v74q-70 10 -86 30t-17 101v563
q-123 -39 -287 -59v-68q59 -9 73 -27t16 -94v-315q0 -81 -16 -101t-89 -30v-74h406z" />
    <glyph glyph-name="parenleft" unicode="(" horiz-adv-x="1529" 
d="M776 383v-541l-776 828l776 829v-543h754v-573h-754z" />
    <glyph glyph-name="parenright" unicode=")" horiz-adv-x="1705" 
d="M851 -182q-351 0 -599 248t-248 599t248 600t600 249t600 -250q248 -248 248 -599t-249 -599t-600 -248zM733 383h-233l350 -352l332 352h-211v895h-238v-895z" />
    <glyph glyph-name="asterisk" unicode="*" horiz-adv-x="1998" 
d="M996 43q-50 0 -87 39l-872 881q-39 39 -39 87t39 87l129 133q37 39 89 39t85 -39l664 -666l649 666q37 39 87 39t89 -39l129 -133q39 -39 39 -89t-35 -85l-877 -881q-39 -39 -89 -39z" />
    <glyph glyph-name="plus" unicode="+" horiz-adv-x="1603" 
d="M1010 842h526v-414h-526v-526h-414v526h-524v414h524v524h414v-524z" />
    <glyph glyph-name="comma" unicode="," horiz-adv-x="995" 
d="M70 1354q0 36 28 68t72 32q43 0 74 -31l717 -714q31 -31 31 -73t-31 -73l-717 -717q-49 -49 -112 -20t-62 92v1436z" />
    <glyph glyph-name="hyphen" unicode="-" horiz-adv-x="935" 
d="M850 1522q78 0 78 -68t-172 -225q-49 -45 -80 -78t-190 -190q-159 -158 -257 -256q416 -408 650 -662q18 -14 33 -43q16 -30 16 -56t-27 -43t-57 -17q-73 -1 -266 229l-500 491q-62 61 -62 91t58 87q662 668 700 705q25 35 76 35z" />
    <glyph glyph-name="zero" unicode="0" horiz-adv-x="1800" 
d="M59 637q0 343 245 587t590 244t590 -244t245 -587q0 -344 -245 -588t-590 -244t-590 244t-245 588zM1137 977v180h-160q-66 0 -112 -20t-66 -46q-19 -26 -31 -60t-12 -48v-172h-105v-174h105v-520h215v520h145q14 84 21 176h-164v123q0 12 14 26t31 15h119z" />
    <glyph glyph-name="one" unicode="1" horiz-adv-x="1476" 
d="M738 201q171 0 296 124t125 291q0 39 -6 78l-80 -20q4 -37 4 -56q0 -135 -101 -236q-100 -101 -238 -101t-236 102q-6 2 -10 12l534 533q-121 112 -289 112t-292 -125t-124 -297t123 -294q123 -123 294 -123zM735 1477l748 -430v-854l-748 -429l-737 429v854zM401 618
q1 140 103 240t239 100q72 0 144 -32l-451 -453q-35 70 -35 145z" />
    <glyph glyph-name="two" unicode="2" horiz-adv-x="1675" 
d="M828 -188q-222 0 -410 112t-301 301q-113 188 -113 400q0 356 243 606t568 250q360 0 608 -248t248 -608q0 -213 -112 -400q-113 -185 -311 -299t-420 -114zM1034 125q0 -25 -3 -73t-3 -68q205 82 344 263t139 378q1 281 -207 489t-486 207q-278 0 -462 -205
q-182 -205 -182 -491q0 -197 138 -378t341 -263v159q-41 -14 -94 -14q-104 0 -172 68q0 72 -106 161q106 0 159 -53q0 -33 25 -55t74 -23q49 0 114 23q0 55 54 55q-158 0 -245 78t-128 242q0 165 45 220q23 28 61 48q-41 -1 -41 65t41 148q106 0 213 -53h375q27 1 107 27
t108 26l23 -145q0 -45 -23 -68q78 -40 92 -110q15 -70 15 -158q-106 -319 -375 -320q59 -61 59 -180z" />
    <glyph glyph-name="three" unicode="3" horiz-adv-x="1671" 
d="M836 -209q-348 0 -592 244t-244 591t245 591q245 243 592 243t591 -244t245 -589q-1 -346 -245 -591t-592 -245zM839 1282q-275 0 -470 -195t-195 -470t195 -470t470 -195t470 196q195 194 195 469t-195 470t-470 195zM1162 666q-96 0 -169 -13l-32 80q174 78 286 205
q100 -127 111 -295q-100 23 -196 23zM907 840q-76 152 -178 284q53 12 111 13q184 0 321 -115q-88 -108 -254 -182zM383 743h-49q27 111 99 200q73 89 175 140q102 -125 187 -282q-191 -58 -412 -58zM319 627l56 -2q272 6 473 67l31 -67q-160 -55 -270 -153t-167 -189
q-123 143 -123 344zM840 100q-174 0 -310 103q152 231 390 311q61 -168 102 -381q-88 -33 -182 -33zM1143 547h2q100 0 205 -23q-41 -215 -217 -331q-37 182 -97 348q54 6 107 6z" />
    <glyph glyph-name="four" unicode="4" horiz-adv-x="1658" 
d="M827 1468q342 0 584 -246t242 -595q0 -348 -242 -594t-584 -246q-341 0 -583 247t-242 594q0 348 242 594t583 246zM1010 266q-66 0 -92 19q-31 18 -38 42t-8 117v269h238v188h-238v242h-147q-25 -223 -221 -281v-149h141v-369q1 -102 61 -176t195 -74t250 58v165
q-75 -51 -141 -51z" />
    <glyph glyph-name="five" unicode="5" horiz-adv-x="1650" 
d="M592 660q0 -84 22 -138q-88 -381 -104 -445t-16 -190q-219 94 -356 298q-136 204 -136 454q0 341 242 581t582 240q341 0 583 -240t242 -581q0 -340 -242 -581t-584 -240q-113 0 -231 32q43 78 85 197t56 205q19 -41 77 -72t124 -30q196 0 320 160t124 403
q0 190 -146 330t-376 141q-141 0 -257 -47q-117 -47 -187 -122q-146 -156 -146 -345q0 -111 43 -195t125 -119q6 -2 15 -2q20 0 33 44t14 65q0 3 -34 67t-34 121q0 160 113 277q113 116 283 116t262 -88t92 -229q0 -180 -75 -308t-190 -128q-55 0 -94 37t-39 80t38 163
t38 173q0 52 -28 86t-87 34t-105 -60t-46 -144z" />
    <glyph glyph-name="six" unicode="6" horiz-adv-x="1636" 
d="M1638 1239v-498l-6 -98q-35 -340 -319 -557q-1 -2 -13 -10q-139 -102 -307 -139h-4q-55 -18 -170 -19q-268 0 -483 158l-10 10q-285 217 -320 557l-6 98v498q0 61 44 105t103 45h1344q47 0 86 -27q61 -42 61 -123zM1317 853q0 48 -34 81t-79 33t-76 -31l-309 -297
l-307 297q-35 31 -79 31t-78 -35q-33 -35 -33 -82t34 -78l387 -371q33 -33 77 -33t77 33l387 371q33 33 33 81z" />
    <glyph glyph-name="seven" unicode="7" horiz-adv-x="1685" 
d="M218 354q30 0 40 -4l526 -248q27 -10 58 -10t57 10q487 228 511 238t52 10l54 -8l147 -68q25 -10 25 -25t-25 -24l-764 -356q-20 -10 -57 -10t-58 10l-759 352q-23 13 -23 25t18 23t66 34t75 37t57 14zM220 821q23 0 38 -6l526 -246q20 -10 58 -10t57 10q487 225 511 237
t52 11l54 -8l147 -68q25 -12 25 -26t-25 -25l-764 -356q-20 -10 -57 -10t-58 10l-759 352q-23 10 -23 26t20 26q20 12 64 30q43 18 78 41q33 12 56 12zM846 1573q30 0 55 -12l762 -355q25 -12 25 -25t-25 -24l-764 -358q-60 -22 -115 0l-759 352q-23 13 -23 29t23 26
l766 355q25 12 55 12z" />
    <glyph glyph-name="eight" unicode="8" horiz-adv-x="2033" 
d="M1287 999q-44 0 -136 -103q-92 -102 -187 -206q-96 -104 -140 -104t-90 46t-101 92t-115 46t-148 -115q-87 -115 -145 -229l-55 -117l-23 -94q22 -66 74 -112q112 -99 294 -154q182 -56 456 -57t443 33t254 81t137 94t65 80l12 35l-24 68q-115 258 -230 417
q-76 94 -118 142t-110 103q-68 54 -113 54zM1007 1417q157 0 309 -76q152 -77 272 -205q247 -268 363 -637q56 -181 70 -356q-133 -197 -402 -294t-610 -97t-613 98t-388 293q30 367 223 712q195 347 471 487q148 76 305 75z" />
    <glyph glyph-name="A" unicode="A" horiz-adv-x="1314" 
d="M319 315v72h668v-72h-668zM319 524v74h668v-74h-668zM319 733v78h668v-78h-668zM190 1339v-1222h936v907h-342v315h-594zM2 1528h881l432 -443v-1159h-1313v1602z" />
    <glyph glyph-name="D" unicode="D" horiz-adv-x="1622" 
d="M1624 1392q0 -74 -19 -151t-87 -195t-179 -233t-315 -255t-473 -269l-166 166q127 270 267 473q140 204 256 314t235 178q256 145 465 89q16 -43 16 -117zM1348 1124q0 51 -38 89t-88 38t-88 -38t-38 -89t38 -89t88 -38t88 38t38 89zM296 682q-56 0 -106 -22t-73 -42
l-25 -20l-67 68q254 324 538 323q20 0 53 -4q-119 -168 -208 -334q-56 31 -112 31zM25 264l303 146l186 -185l-162 -297v244l-299 -299l148 375zM1085 465q0 -285 -321 -539l-68 70q84 84 84 197q1 61 -30 116q154 84 331 213q4 -33 4 -57z" />
    <glyph glyph-name="J" unicode="J" horiz-adv-x="1368" 
d="M1184 811h182v-1026h-1368v1026h176v299q0 205 146 351q146 147 355 147t359 -142t150 -356v-299zM422 1110v-299h516v299q0 102 -74 175t-182 73t-184 -68t-76 -180z" />
    <glyph glyph-name="K" unicode="K" horiz-adv-x="1169" 
d="M0 1374h1167v-1638l-583 409l-584 -409v1638z" />
    <glyph glyph-name="L" unicode="L" horiz-adv-x="1730" 
d="M6 1016h289v-1039h-289v1039zM1536 1049q188 -1 188 -223q0 -198 -9 -313t-36 -202q-28 -87 -57 -125q-81 -108 -186 -151q-104 -43 -275 -43q-37 0 -317 78t-406 94v852q166 29 253 146q69 92 110 238q8 32 21 85t22 78v2q12 53 92 53q43 0 62 -15t36 -51
q47 -139 53 -341q2 -67 3 -195q23 -2 85 -2t189 17t172 18z" />
    <glyph glyph-name="M" unicode="M" horiz-adv-x="1716" 
d="M1716 389h-289v1038h289v-1038zM186 356q-188 0 -188 222q0 318 20 408q38 174 74 223q87 116 176 153q122 51 293 51q37 0 318 -78t405 -94v-852q-278 -49 -362 -384q-33 -131 -43 -163v-2q-14 -53 -93 -53q-43 0 -62 15t-36 51q-47 139 -53 341q-2 67 -2 195
q-23 2 -85 2t-190 -17q-127 -17 -172 -18z" />
    <glyph glyph-name="N" unicode="N" horiz-adv-x="1857" 
d="M891 0q-78 0 -137 8q-123 -127 -251 -182q-129 -55 -221 -55t-92 26q0 8 9 15q109 78 145 154t35 163q-172 99 -270 247q-99 148 -99 338t127 366q127 177 352 286t492 109q341 1 591 -181t281 -456q4 -49 5 -74q0 -150 -76 -290q-156 -287 -512 -412q-180 -62 -379 -62z
" />
    <glyph glyph-name="O" unicode="O" horiz-adv-x="1998" 
d="M186 1167v-270h570l108 143q10 10 19 11h925q-12 41 -44 77t-70 35h-811l-115 123h-463q-49 0 -84 -35t-35 -84zM1694 1280q96 0 165 -69t68 -164v-924q-1 -96 -69 -165t-164 -69h-1389q-96 0 -165 69t-68 165v1044q0 96 68 165q69 69 165 69h463q41 0 82 -33l82 -88h762
z" />
    <glyph glyph-name="P" unicode="P" 
d="M1481 578q0 209 -119 278q-37 -4 -72 -39l-413 -409q6 -18 6 -46t-33 -53q-298 -303 -356 -359t-86 -54q-59 0 -121 61q-61 61 -62 121q0 31 21 51l405 403q23 23 44 23t42 -4l367 364q39 51 39 88t-35 74t-81 39t-112 72l-12 12q-39 35 -39 49t35 49l135 136
q35 35 50 34t61 -49q61 -61 67 -94q14 -43 50 -86q4 -6 32 -7t33 -9l227 -219q82 -80 82 -241t-43 -284l-14 -45l-100 94q2 18 2 50zM506 1222q0 60 -12 78t-127 134l36 30q139 0 252 -112t113 -252q0 -45 -31 -107l148 -145l-189 -184q-18 0 -28 -2l-136 126
q-53 -27 -102 -26q-141 0 -253 112t-114 252q0 6 33 33q40 -37 85 -82q45 -44 59 -50q14 -5 34 -5l39 2q53 0 123 69t70 129zM993 338l2 31l185 184l262 -260l176 -133l20 -70l-196 -196l-70 18l-133 178zM1422 193q-34 0 -58 -25q-24 -24 -23 -58q0 -34 24 -58
q23 -24 57 -24t59 24t24 59t-25 59t-58 23z" />
    <glyph glyph-name="R" unicode="R" horiz-adv-x="1896" 
d="M2 570q0 30 23 53l188 188q20 20 53 20t56 -20l303 -305q23 -23 53 -23t55 23l838 842q20 20 53 20t55 -20l187 -187q20 -20 20 -53t-20 -53l-1016 -1020q-53 -53 -129 -53h-88q-53 0 -77 12t-52 41l-479 481q-23 24 -23 54z" />
    <glyph glyph-name="S" unicode="S" horiz-adv-x="2115" 
d="M1141 463q-263 1 -431 -19t-296 -69t-200 -105q-148 -114 -194 -200l-18 -37q0 269 142 454t346 287t323 129q229 51 289 58l39 4v397l987 -662l-987 -667v430z" />
    <glyph glyph-name="T" unicode="T" horiz-adv-x="1902" 
d="M1708 993q0 -199 -74 -395q-164 -436 -559 -624q-215 -101 -473 -101q-326 0 -594 176q47 -6 94 -6q262 0 482 168q-125 2 -226 79q-100 77 -139 195q37 -6 83 -6t93 13q-135 28 -222 138t-87 253q84 -47 174 -47q-80 51 -126 137t-46 190t51 195q147 -180 355 -289
t448 -121q-10 35 -10 90q0 164 112 279q113 115 279 115t279 -125q139 29 247 96q-41 -135 -170 -219q122 16 222 63q-74 -115 -193 -205v-49z" />
    <glyph glyph-name="U" unicode="U" 
d="M549 991l-17 137q0 184 142 234q22 7 80 29t123 22t139 -45l33 -29l53 -10q14 -8 37 -51q18 -63 18 -129q-10 -92 -10 -129t15 -71t16 -62q0 -88 -29 -129q-5 -8 -25 -18t-28 -25q-8 -14 -10 -53q-2 -38 -7 -52q-4 -14 -23 -37t-22 -51q16 -2 45 -6q4 -6 27 -54t43 -61
q66 -15 203 -73t177 -72q110 -38 134 -102l4 -246h-1620l4 246q10 26 34 48t42 30t60 24q41 14 175 69t203 76q19 11 42 59q22 47 28 56l33 8q-4 23 -23 43q-18 20 -22 31l-13 133q-82 0 -82 193q0 8 11 26q10 18 10 41z" />
    <glyph glyph-name="V" unicode="V" horiz-adv-x="1689" 
d="M61 987q0 172 124 296t300 124q106 1 191 -51q55 -34 102 -71q47 -36 56 -42q29 -41 28 -51q0 -24 -56 -48t-108 -36t-64 -12t-62 30t-102 31q-52 0 -102 -49q-50 -48 -50 -108t23 -98q24 -38 77 -86t71 -68l177 -173q47 -47 120 -47q33 0 72 16t45 15q29 0 97 -71
t67 -91q0 -45 -105 -84t-176 -39q-178 0 -301 123l-297 295q-127 123 -127 295zM911 987q180 0 301 -121l297 -297q127 -115 127 -289t-122 -300t-288 -125q-166 0 -337 143q-53 42 -53 68t40 44t96 34q56 15 70 22l17 4q20 0 68 -31t85 -30q70 0 119 47t49 116
q0 104 -140 214q-28 22 -32 26l-176 176q-47 47 -121 47q-35 0 -73 -16t-43 -17q-35 0 -100 75t-64 89q0 68 211 113q40 8 69 8z" />
    <glyph glyph-name="X" unicode="X" horiz-adv-x="1531" 
d="M1069 665q0 -50 33 -81l328 -326q32 -33 32 -86t-32 -82l-97 -92q-33 -33 -82 -33t-82 33l-327 326q-35 34 -83 34t-83 -34l-326 -326q-33 -33 -84 -33t-84 33l-92 92q-33 33 -33 64q0 72 33 104l328 326q33 33 33 82t-33 82l-328 325q-33 33 -33 84t33 84l92 92
q33 33 84 33t84 -33l326 -325q35 -35 83 -35t83 35l327 325q33 33 80 33t84 -33l97 -92q33 -33 33 -84t-33 -84l-328 -325q-33 -33 -33 -83z" />
    <glyph glyph-name="Y" unicode="Y" horiz-adv-x="2740" 
d="M27 170q0 66 36 115l291 366q53 61 130 61t126 -65l211 -287l285 730q39 102 144 102t153 -98l336 -799l329 1124q16 49 60 80t96 31q98 0 143 -90l332 -684q45 -104 -30 -182q-47 -48 -117 -48q-102 0 -146 90l-147 310l-340 -1157q-35 -102 -143 -113q-115 0 -162 96
l-352 850l-250 -633q-18 -47 -58 -75t-90 -29q-82 0 -129 67l-260 353l-164 -199q-49 -62 -115 -62t-118 40q-51 40 -51 106z" />
    <glyph glyph-name="bracketleft" unicode="[" horiz-adv-x="1986" 
d="M1028 858h594v176l363 -336l-363 -336v177h-594v319zM0 1327q0 70 17 88t83 19h1295q70 0 88 -18t18 -89v-274h-274v102h-948v-950h948v106h274v-278q0 -66 -18 -83t-88 -18h-1295q-64 0 -82 18t-18 83v1294z" />
    <glyph glyph-name="d" unicode="d" horiz-adv-x="1671" 
d="M424 944q0 14 12 28t35 15l82 -51q18 -18 18 -51q-10 -1 -18 -9t-16 -8l-17 17l-84 33q-12 12 -12 26zM453 719h-80q-33 0 -33 18q0 13 9 23t24 10h80q14 0 23 -10t9 -23q1 -18 -32 -18zM1020 1004q-33 0 -33 51l51 61q0 10 10 18t21 9q25 0 25 -41q0 -8 -7 -15l-34 -67
q-15 -16 -33 -16zM850 1055q-24 0 -27 2q-2 2 -2 12v98q1 35 15 35t25 -10t11 -25v-98q2 -14 -22 -14zM1228 999q12 0 23 -12q0 -35 -12 -51l-68 -33l-16 -18q-16 0 -33 18q0 33 17 49l65 35q12 12 24 12zM844 1337q-258 0 -440 -186t-183 -451q0 -82 15 -114h354
q25 -63 93 -107q69 -43 160 -43t163 43t98 107h350l19 114q1 266 -185 452t-444 185zM836 1536q350 0 592 -243t243 -593q-1 -221 -111 -412t-303 -305t-421 -114q-336 0 -584 248t-248 583q0 229 114 422q114 194 306 304t412 110zM1321 719h-98q-14 0 -24 11q-9 12 -9 24
t9 22t24 10h98q16 0 16 -34t-16 -33zM944 711q0 -43 -24 -80t-74 -37q-90 0 -111 59q-30 43 -117 385l-28 115q18 0 164 -166t186 -217q4 -16 4 -59z" />
    <glyph glyph-name="e" unicode="e" horiz-adv-x="1685" 
d="M833 326q73 0 143 30t102 54t155 122t268 205t157 116t17 13v-823q1 -41 -31 -72t-73 -30h-1467q-38 -1 -70 31t-32 71v823q43 -43 173 -134q129 -91 478 -357q107 -49 180 -49zM836 532q-49 0 -126 54t-110 88q-221 176 -438 332q-54 38 -106 114t-52 117t31 70t69 28
h1467q39 -1 69 -29t31 -69q0 -41 -51 -117t-107 -114q-125 -88 -438 -332q-45 -45 -121 -93t-112 -49h-6z" />
    <glyph glyph-name="f" unicode="f" horiz-adv-x="1619" 
d="M1628 809q0 -49 -53 -84l-369 -244q-16 -6 -16 -20t2 -19v-2l162 -475q8 -29 8 -51t-20 -48q-20 -28 -54 -28q-33 0 -76 31l-381 309q-4 6 -17 6t-19 -6l-363 -307q-4 -2 -13 -10q-9 -7 -15 -11q-59 -32 -96 9q-36 42 -19 106l145 471q0 39 -16 45l-371 244
q-53 35 -53 84t53 72q11 4 19 5t18 3t12 2h461q20 0 37 27l131 479q16 49 38 64q21 15 49 15t48 -18t24 -28t11 -33l133 -479q12 -27 37 -27h461q54 1 78 -27t24 -55z" />
    <glyph glyph-name="j" unicode="j" horiz-adv-x="1368" 
d="M1325 770h-182v340q0 195 -138 326q-137 131 -329 131t-326 -134t-135 -323v-340h-176v-944h1286v944zM1225 852h182v-1108h-1450v1108h176v258q0 223 158 381t384 158t388 -155t162 -384v-258zM381 770v340q0 127 89 208t214 81t210 -85t85 -204v-340h-598zM463 1110
v-258h434v258q0 86 -61 146q-62 60 -152 60t-156 -56q-65 -58 -65 -150z" />
    <glyph glyph-name="k" unicode="k" horiz-adv-x="1234" 
d="M1130 1284h-1026v-1434l482 338q10 10 29 10t34 -10q113 -78 481 -338v1434zM1184 1382q12 0 28 -13t17 -26v-1597q-10 -41 -49 -41q-14 -1 -56 29t-182 128q-139 98 -231 162q-93 64 -95 64q-11 -2 -238 -164q-228 -163 -294 -209q-16 -10 -32 -10t-30 11q-15 11 -16 28
v1599q0 11 14 25t29 14h1135z" />
    <glyph glyph-name="l" unicode="l" horiz-adv-x="1761" 
d="M1753 689q0 -230 -48 -367q-47 -137 -109 -206t-173 -114t-237 -45t-300 56q-175 56 -405 98l-12 -43q0 -73 -41 -103q-41 -31 -203 -31h-30q-193 0 -193 113v928q0 115 100 115h260l80 -11q58 0 84 17q82 44 127 114t59 131q13 61 31 119q39 125 224 125q80 0 125 -39
q47 -54 63 -160q6 -39 16 -94t11 -182q14 -20 26 -20l252 26q84 0 142 -26t88 -62q29 -35 44 -98q15 -62 17 -102t2 -139zM1065 1180q-1 63 -25 172q-24 108 -26 118q-17 26 -78 26q-61 -1 -78 -26q-58 -238 -142 -356q-36 -49 -94 -88t-126 -45l-27 -2v-746q90 -23 111 -26
l577 -141q227 0 339 112q77 79 97 148q38 130 43 216q6 86 6 139v62q0 192 -58 239q-32 26 -68 26t-48 -2l-338 -31l-65 6v199zM365 979h-259v-928h259v928z" />
    <glyph glyph-name="m" unicode="m" horiz-adv-x="1757" 
d="M4 652q0 230 48 368q48 137 110 206q62 70 172 114q111 44 237 44t252 -41q125 -41 193 -59t260 -53l12 43q0 80 47 106t138 25q10 0 48 1t55 0l51 -3q41 -2 75 -22q34 -19 44 -39t9 -48v-927q0 -115 -100 -115h-260l-80 10q-58 0 -84 -16q-82 -45 -127 -115t-58 -131
q-14 -60 -32 -118q-40 -126 -223 -126q-80 0 -125 39q-48 55 -64 160q-6 39 -16 94t-11 182q-14 20 -26 21l-252 -27q-84 0 -142 27q-58 28 -87 62t-44 98t-18 102q-2 38 -2 138zM692 162q0 -63 24 -172t27 -119q25 -25 78 -25t78 25q58 240 142 355q37 48 95 88t126 46
l26 2v746q-90 23 -110 27l-578 141q-229 0 -339 -113q-75 -77 -96 -147q-38 -128 -44 -215t-6 -218q1 -131 33 -191t104 -60q12 0 37 4l338 31l65 -7v-198zM1393 362h258v928h-258v-928z" />
    <glyph glyph-name="n" unicode="n" horiz-adv-x="1955" 
d="M100 687q0 -141 94 -277t259 -240q18 -20 20 -45q-4 -189 -139 -305q198 0 432 229q12 6 31 10q59 -10 178 -10t277 49q158 50 293 138q134 88 219 227t85 303q0 23 -4 68q-37 176 -108 272q-121 158 -307 239t-400 80q-393 0 -663 -223q-129 -104 -198 -239t-69 -276z
M2 708q0 180 91 336q171 295 570 422q183 60 394 60t420 -90t342 -269q82 -110 127 -317q6 -45 6 -90q0 -182 -104 -346t-262 -270q-291 -196 -660 -195l-105 6q-6 0 -8 -2q-248 -233 -498 -234q-115 0 -133 70q0 49 65 97q34 26 44 34q61 59 80 180q-174 109 -272 269
q-97 160 -97 339z" />
    <glyph glyph-name="o" unicode="o" horiz-adv-x="1779" 
d="M1552 1282q94 0 161 -67t67 -160v-946q0 -92 -67 -159t-161 -67h-1325q-95 0 -161 67t-66 159v1062q0 94 67 161t160 67h453q49 0 80 -35l80 -82h712zM94 1171v-266h576l102 144q12 8 21 8h888q0 47 -54 89t-111 42h-723l-113 117h-473q-45 1 -79 -43t-34 -91zM1686 133
v813h-863l-104 -143q-8 -8 -23 -8h-602v-662q0 -49 35 -100t78 -51h1349q45 0 88 51q42 51 42 100z" />
    <glyph glyph-name="p" unicode="p" horiz-adv-x="1611" 
d="M1616 1171l-195 -194l-297 297l195 194zM1319 874l-887 -884l-442 -146l145 441l885 886zM1022 1018l-735 -731l49 -54l739 738z" />
    <glyph glyph-name="q" unicode="q" horiz-adv-x="1746" 
d="M1735 -32q0 -58 -41 -99q-40 -41 -100 -41t-107 47l-447 447q-145 -96 -335 -97q-265 1 -451 185t-186 446t186 448t450 187q264 0 448 -186q185 -186 185 -449q0 -184 -96 -336l447 -444q47 -50 47 -108zM1057 857q1 145 -103 249t-250 104t-250 -103t-106 -249
q0 -146 104 -250t252 -104q146 0 250 104t103 249z" />
    <glyph glyph-name="r" unicode="r" horiz-adv-x="1896" 
d="M1591 1315h-10l-326 -328q-41 -41 -224 -225t-269 -264q-27 -25 -61 -25q-33 0 -61 11t-36 28q-53 50 -152 150t-139 139q-4 2 -24 2q-188 -176 -189 -205q340 -358 482 -485q20 -19 108 -19t121 33q88 86 249 248t224 223q82 86 252 254t248 252q4 4 4 14t-18 28l-74 74
l-76 76t-29 19zM1591 1413q25 0 58 -12q33 -13 136 -119t103 -160t-39 -98l-958 -958q-30 -30 -71 -49q-42 -19 -68 -19h-138q-76 18 -106 49q-123 119 -485 485q-23 45 -23 54v37q8 43 30 64t82 88q62 67 104 97t87 31q45 0 68 -20q59 -53 167 -165t126 -130t25 -17
q7 0 29 17t51 49t56 59l281 281q254 254 385 389q45 47 100 47z" />
    <glyph glyph-name="s" unicode="s" horiz-adv-x="2177" 
d="M1141 -16q-39 0 -51 45v383q-174 -2 -270 -8t-238 -36q-143 -30 -252 -87q-217 -113 -281 -269q-19 -28 -43 -28q-52 1 -53 53v5q-1 1 -1 10t34 224q27 172 205 345q179 171 380 249t435 127q47 9 78 15v118t6 228q4 53 49 53q16 0 32 -8l988 -662v-96l-994 -657
q-10 -4 -24 -4zM77 219q203 197 491 250q153 29 273 37t300 8q49 -8 51 -55v-330l844 571l-844 566v-305q-8 -33 -43 -48q-737 -88 -985 -487q-75 -117 -87 -207z" />
    <glyph glyph-name="t" unicode="t" horiz-adv-x="1886" 
d="M1740 1434q40 0 72 -33t31 -80l-6 -41q0 -2 8 -8q43 -32 43 -86q0 -74 -166 -234v-45q-16 -201 -115 -429q-51 -120 -147 -234q-182 -219 -472 -322q-148 -53 -288 -53h-127q-299 20 -530 184q-39 27 -39 79t34 82t83 30h78q82 2 145 20q-49 39 -101 120t-53 132l5 33
q0 2 -31 43q-31 42 -62 106t-30 125v54q0 21 14 41t16 26q-7 0 -18 52q-10 52 -10 71v86q39 242 157 242q55 0 161 -113q159 -169 423 -229q31 205 165 306t310 101q70 0 131 -26q115 -57 125 -72q24 8 88 40q66 32 106 32zM1642 1276q-2 0 -49 -15t-77 -20q-40 46 -60 53
q-43 27 -80 35q-59 20 -110 21q-120 0 -222 -87t-114 -221q0 -6 -2 -10v-63q6 -16 6 -43q-203 0 -388 101t-313 257l-2 -4q-39 -57 -43 -137v-60q0 -75 44 -147t106 -111h-4q-82 0 -146 41v-28q0 -86 71 -186t194 -126l-2 -4q-78 -13 -150 -4q8 -16 12 -29v-4
q27 -84 116 -143t183 -63q6 0 9 -3q-45 -33 -87 -56q44 25 87 56q-192 -147 -443 -147l-43 4q-2 0 -9 1t-11 1l4 -2h-4l24 -8q207 -125 453 -145h98q6 0 51 4q193 18 354 104q295 158 437 497q63 153 76 312v25q2 16 2 43v43q78 41 170 178q-24 -12 -31 -12
q-59 -23 -160 -44q-2 2 -4 3q111 84 150 190q-12 -11 -43 -25t-37 -18h-2q-9 -4 -11 -4zM1462 1290l11 -14l-17 16z" />
    <glyph glyph-name="u" unicode="u" horiz-adv-x="1642" 
d="M825 1409q94 0 174 -49q24 -24 42 -26q18 -3 26 -5q51 -16 72 -108q8 -35 8 -76l-8 -139q0 -33 15 -77t15 -86q0 -43 -21 -95t-61 -65v-1q0 -73 -34 -124q20 -12 24 -26q5 -14 9 -20t16 -28q10 -22 18 -31q57 -13 87 -25q46 -19 144 -57t169 -75q72 -38 84 -60
q29 -47 28 -185v-20q0 -109 -24 -125q-12 -8 -33 -8h-1509q-37 0 -49 28q-11 29 -11 120t11 144q11 52 99 102t185 78q98 28 178 68t80 80l-2 -6l-3 -3l13 30q2 6 6 10q-16 18 -22 40t-10 95q-37 19 -59 72t-22 111t21 91l-4 58l-10 80q0 145 104 229t254 84zM554 509l-1 -3
q-1 -1 -3 -4q2 4 4 7zM1085 511q4 -10 9 -15zM1534 -6q0 168 -17 192t-80 46t-77 28q-35 4 -96 35q-74 37 -120 49q-86 22 -121 79q-13 20 -25 49q-23 2 -37 12t-23 36q0 43 18 68l17 18q9 13 12 21q2 8 4 50t19 62l47 33q20 33 20 62q0 30 -16 74t-17 81l13 144
q0 14 -13 79q-3 7 -9 19q-26 1 -74 33q-47 32 -65 40t-63 9q-115 0 -191 -53t-75 -136l17 -149q0 -42 -23 -76v-51q0 -12 2 -20t3 -16q1 -9 5 -15t9 -15t26 -14q18 -12 31 -35l9 -114q46 -51 45 -89q-1 -39 -40 -53h-6q-27 -70 -51 -89q-24 -20 -84 -40t-140 -55t-151 -60
q-71 -24 -91 -46t-20 -62l3 -53q0 -42 -3 -78h1428zM1016 1252q-3 2 -6 1q3 0 6 -1z" />
    <glyph glyph-name="v" unicode="v" horiz-adv-x="2154" 
d="M1072 1069q-162 1 -272 -107t-110 -268t112 -272t270 -111q158 0 265 110q107 109 107 273t-104 270t-268 105zM1092 1413q144 0 316 -75q173 -75 301 -181q128 -107 231 -213t157 -182l53 -74q-66 -95 -194 -230q-129 -135 -249 -228t-296 -169q-175 -75 -319 -75
t-268 39q-201 63 -422 236q-95 75 -209 198t-164 190l-27 39q10 14 29 41q17 27 79 101q482 582 982 583zM862 690q0 90 58 157t148 67q89 0 156 -68q66 -68 66 -156t-66 -147t-156 -59t-148 58t-58 148z" />
    <glyph glyph-name="w" unicode="w" horiz-adv-x="1792" 
d="M903 1448q346 0 591 -244t245 -590t-245 -590t-591 -243q-346 0 -591 244q-244 243 -244 589t244 590q245 244 591 244zM903 -10q260 0 443 183q182 183 182 441t-183 442t-443 185q-260 0 -443 -184q-185 -185 -185 -443t184 -441t445 -183zM817 1032q0 12 10 24t23 13
h94q14 0 24 -11t9 -26v-381l332 -223q14 -14 14 -24t-4 -23l-47 -76q-6 -12 -25 -18q-8 0 -26 6l-385 258q-18 18 -19 31v450z" />
    <glyph glyph-name="x" unicode="x" horiz-adv-x="1542" 
d="M1536 -33q0 -25 -26 -41t-50 -16q-48 0 -134 86q-30 31 -69 75t-47 52l-442 440q-412 -416 -616 -606q-16 -19 -46 -33t-40 -14q-64 0 -64 66q-1 72 157 208q54 46 58 49q35 37 436 443q-475 475 -618 620q-33 33 -33 80q0 64 66 64t194 -142q64 -70 68 -74t82 -80
q78 -77 356 -353q348 352 625 616q23 33 71 33q72 -1 72 -62t-143 -196l-72 -66q-13 -12 -71 -72t-167 -168t-200 -200q444 -440 606 -617q19 -12 33 -40t14 -52z" />
    <glyph glyph-name="braceleft" unicode="{" horiz-adv-x="1357" 
d="M8 1043v96q0 51 66 65q41 9 137 17q95 8 137 12q-2 16 -2 47q0 123 80 159t262 36t246 -45q63 -45 63 -146v-27q0 -16 -2 -24q100 1 218 -21t147 -34v-150q-4 -2 -14 -2l-1319 -2q-19 0 -19 19zM174 870h1008q29 0 43 2v-874q0 -68 -47 -115t-117 -47h-762q-68 0 -117 47
t-49 115v874q12 -2 41 -2zM489 115v506q0 14 -13 27t-27 14h-43q-39 0 -39 -41v-506q0 -39 39 -39h43q40 0 40 39zM829 1237q1 9 3 25t-1 22v14q-49 14 -161 14t-158 -14v-14q0 -35 4 -47h313zM737 115v506q0 14 -12 27t-29 14h-49q-17 0 -29 -14t-12 -27v-506q0 -39 41 -39
h49q41 0 41 39zM856 621v-506q0 -39 41 -39h43q43 0 43 39v506q0 16 -12 28t-31 13h-43q-17 0 -29 -12t-12 -29z" />
    <glyph glyph-name="bar" unicode="|" horiz-adv-x="368" 
d="M369 18q-1 -76 -55 -129t-130 -53t-130 53t-54 129t54 129t130 53t130 -52q54 -54 55 -130zM369 664q-1 -76 -55 -128t-131 -52t-130 52t-53 128t53 129t130 53t131 -53t55 -129zM369 1311q-1 -76 -55 -129q-54 -54 -130 -54t-130 54t-54 129q0 76 54 129t130 53t130 -53
t55 -129z" />
    <glyph glyph-name="braceright" unicode="}" horiz-adv-x="2197" 
d="M1333 1100l-305 -948h-156l308 948h153zM2193 621q0 -36 -2 -47q-5 -29 -61 -62t-279 -156t-319 -184v244q78 41 397 196l-397 224v241l616 -352q31 -18 38 -43t7 -61zM653 172l-594 352q-68 35 -67 113q0 20 17 46t50 42q68 41 288 166t306 186v-241q-53 -39 -377 -199
q100 -47 224 -126q125 -79 153 -95v-244z" />
  </font>
</defs>
</svg>
