<?xml version="1.0" encoding="utf-8"?>
<!-- Generator: Adobe Illustrator 15.0.0, SVG Export Plug-In . SVG Version: 6.00 Build 0)  -->
<!DOCTYPE svg PUBLIC "-//W3C//DTD SVG 1.1//EN" "http://www.w3.org/Graphics/SVG/1.1/DTD/svg11.dtd">
<svg version="1.1" id="Layer_1" xmlns="http://www.w3.org/2000/svg" xmlns:xlink="http://www.w3.org/1999/xlink" x="0px" y="0px"
	 width="65.84px" height="48.5px" viewBox="0 0 65.84 48.5" enable-background="new 0 0 65.84 48.5" xml:space="preserve">
<g>
	<ellipse fill-rule="evenodd" clip-rule="evenodd" fill="#E15243" cx="31.59" cy="47.5" rx="24.75" ry="1"/>
	<path fill-rule="evenodd" clip-rule="evenodd" fill="#E45546" d="M26.79,16.1c1.4,0,2.52,1.14,2.51,2.55
		c-0.01,1.41-1.14,2.55-2.54,2.56c-1.4,0-2.53-1.14-2.52-2.56C24.25,17.24,25.39,16.09,26.79,16.1z"/>
	<path fill-rule="evenodd" clip-rule="evenodd" fill="#C24B41" d="M17.26,30.76c-0.01,1.41-1.15,2.561-2.57,2.58
		c-1.41,0.02-2.57-1.109-2.57-2.529c0-1.41,1.16-2.57,2.58-2.58C16.11,28.221,17.26,29.359,17.26,30.76z"/>
	<path fill-rule="evenodd" clip-rule="evenodd" fill="#B1463E" d="M8.18,29.15c-1.07,1.08-2.79,1.129-3.84,0.1s-1.02-2.74,0.06-3.8
		c1.08-1.07,2.78-1.09,3.82-0.08C9.25,26.391,9.23,28.08,8.18,29.15z"/>
	<path fill-rule="evenodd" clip-rule="evenodd" fill="#6A3231" d="M4.41,12.37c-1.1-1.08-1.14-2.81-0.09-3.86
		c1.06-1.04,2.79-0.99,3.87,0.11c1.07,1.08,1.09,2.79,0.06,3.82C7.21,13.47,5.5,13.45,4.41,12.37z"/>
	<path fill-rule="evenodd" clip-rule="evenodd" fill="#8D3C37" d="M2.62,16.06c1.46,0,2.63,1.17,2.64,2.6c0,1.43-1.17,2.6-2.61,2.6
		c-1.45,0-2.64-1.16-2.65-2.6C0,17.22,1.17,16.05,2.62,16.06z"/>
	<path fill-rule="evenodd" clip-rule="evenodd" fill="#E45546" d="M17.29,6.67c0,1.43-1.16,2.59-2.58,2.58
		c-1.44-0.01-2.6-1.19-2.6-2.63s1.16-2.59,2.6-2.58C16.14,4.06,17.29,5.24,17.29,6.67z"/>
	<path fill-rule="evenodd" clip-rule="evenodd" fill="#E45546" d="M25.12,11.98c-0.94,0.96-2.5,0.94-3.47-0.04
		c-0.97-0.99-0.97-2.57-0.01-3.51c0.95-0.95,2.5-0.91,3.45,0.07C26.05,9.48,26.06,11.03,25.12,11.98z"/>
	<path fill-rule="evenodd" clip-rule="evenodd" fill="#D34F44" d="M21.64,29.34c-0.95-0.93-0.93-2.49,0.04-3.47
		c0.97-0.97,2.52-0.99,3.46-0.05c0.92,0.939,0.89,2.479-0.07,3.449C24.12,30.23,22.58,30.27,21.64,29.34z"/>
	<path fill-rule="evenodd" clip-rule="evenodd" fill="#F8DBDA" d="M34,33.75c0,1.141,0.939,2.07,2.09,2.07
		c1.16,0,2.09-0.93,2.09-2.07c0-1.15-0.93-2.07-2.09-2.07C34.939,31.68,34,32.6,34,33.75z M25.84,33.75c0,0,4.59,6.75,10.25,6.75
		s10.25-6.75,10.25-6.75S41.75,27,36.09,27S25.84,33.75,25.84,33.75z M32.48,33.75c0-1.98,1.62-3.58,3.61-3.58
		c2,0,3.609,1.6,3.609,3.58s-1.609,3.58-3.609,3.58C34.1,37.33,32.48,35.73,32.48,33.75z"/>
	<polygon fill-rule="evenodd" clip-rule="evenodd" fill="#452829" points="48.24,10.56 48.24,0 39.91,0 39.91,10.56 29.34,10.56 
		29.34,18.89 39.91,18.89 39.91,29.5 48.24,29.5 48.24,18.89 58.84,18.89 58.84,10.56 	"/>
	<path fill-rule="evenodd" clip-rule="evenodd" fill="#2BC2E1" d="M35.96,22.99l-3.61-3.61c0.49-0.78,0.77-1.75,0.77-2.73
		c0-2.84-2.3-5.15-5.12-5.15c-2.85,0-5.16,2.31-5.16,5.15c0,2.84,2.31,5.12,5.16,5.12c0.98,0,1.94-0.26,2.72-0.78l3.62,3.63
		C34.58,24.87,34.93,25,35.23,25c0.6,0,1.109-0.52,1.109-1.12C36.34,23.57,36.21,23.25,35.96,22.99z M30.85,16.65
		c0,1.58-1.27,2.86-2.85,2.86c-1.59,0-2.89-1.28-2.89-2.86c0-1.59,1.3-2.87,2.89-2.87C29.58,13.78,30.85,15.06,30.85,16.65z"/>
	<path fill-rule="evenodd" clip-rule="evenodd" fill="#649E7D" d="M41.84,22.77v15.96c0,1.1,0.16,1.27,1.25,1.27h15.65
		c1.08,0,1.25-0.17,1.25-1.27v-3.42h-3.301v1.33H45.21V24.93h11.479v1.25h3.301v-3.41c0-1.11-0.17-1.27-1.25-1.27H43.09
		C42,21.5,41.84,21.66,41.84,22.77z M54.29,28.6h7.18v-2.18l4.37,4.141l-4.37,4.14v-2.171H58.15h-3.86V28.6z"/>
</g>
</svg>
